<?xml version="1.0" encoding="UTF-8"?>
<!DOCTYPE svg PUBLIC "-//W3C//DTD SVG 1.1//EN" "http://www.w3.org/Graphics/SVG/1.1/DTD/svg11.dtd">
<!-- Creator: CorelDRAW X6 -->
<svg xmlns="http://www.w3.org/2000/svg" xml:space="preserve" width="9.43055in" height="3.93055in" version="1.1" style="shape-rendering:geometricPrecision; text-rendering:geometricPrecision; image-rendering:optimizeQuality; fill-rule:evenodd; clip-rule:evenodd"
viewBox="0 0 9431 3931"
 xmlns:xlink="http://www.w3.org/1999/xlink">
 <defs>
  <style type="text/css">
   <![CDATA[
    .fil3 {fill:#274053;fill-rule:nonzero}
    .fil1 {fill:#29465C;fill-rule:nonzero}
    .fil2 {fill:#3AB778;fill-rule:nonzero}
    .fil0 {fill:url(#id0)}
   ]]>
  </style>
  <linearGradient id="id0" gradientUnits="userSpaceOnUse" x1="-14.7165" y1="3915.84" x2="3892.87" y2="8.25591">
   <stop offset="0" style="stop-color:#00AFEF"/>
   <stop offset="1" style="stop-color:#3AB778"/>
  </linearGradient>
 </defs>
 <g id="Layer_x0020_1">
  <metadata id="CorelCorpID_0Corel-Layer"/>
  <path class="fil0" d="M3549 2977c-32,0 -58,26 -58,58 0,32 26,58 58,58 32,0 58,-26 58,-58 0,-32 -26,-58 -58,-58zm-3049 -2194c26,0 46,-21 46,-46 0,-26 -21,-46 -46,-46 -26,0 -46,21 -46,46 0,26 21,46 46,46zm3254 1622l-808 -706c7,-9 11,-21 11,-33 0,-10 -3,-20 -8,-28l402 -358c10,11 25,18 42,18 2,0 5,0 7,-1l364 1102c-3,2 -6,4 -9,7zm-27 49l-443 154c0,-2 0,-3 0,-5 0,-42 -34,-76 -76,-76 -22,0 -41,9 -55,24l-526 -532c4,-9 6,-19 6,-30 0,-23 -11,-44 -27,-58l269 -214c8,4 16,6 26,6 11,0 20,-3 29,-8l810 707c-6,9 -10,20 -12,32zm-758 1006l-383 -1401c11,-5 20,-12 28,-20l526 532c-5,10 -8,21 -8,33 0,38 28,69 64,75l-227 782zm-42 37l-664 -711c6,-11 10,-23 10,-36 0,-22 -9,-42 -24,-56l275 -637c10,5 21,8 33,8 2,0 5,0 7,-1l387 1418c-9,4 -17,9 -23,15zm-16 22l-1159 -409c1,-4 1,-7 1,-11 0,-8 -2,-16 -4,-24l385 -279c14,19 36,32 61,32 21,0 39,-8 53,-21l664 711c-1,1 -1,2 -2,3zm-8 35l-1344 232c-11,-38 -40,-67 -77,-78l191 -533c1,0 2,0 3,0 30,0 56,-18 68,-43l1159 409c-1,4 -1,7 -1,11 0,0 0,1 0,1zm-1453 149c-22,0 -43,7 -61,18l-505 -668c7,-7 12,-15 15,-24l702 66c0,2 0,3 0,5 0,33 21,61 51,72l-191 533c-3,0 -7,-1 -10,-1zm-610 -777l-69 -736c31,-5 56,-28 63,-59l678 44c1,14 6,27 14,38l-651 727c-10,-7 -21,-12 -34,-14zm-73 31l-582 -318c4,-10 6,-21 6,-32 0,-16 -4,-31 -12,-45l525 -394c11,12 26,20 43,22l69 736c-21,3 -39,14 -50,31zm-601 -414c-12,-14 -29,-24 -47,-28l93 -853c16,0 31,-6 43,-15l443 424c-9,13 -15,28 -15,44 0,12 3,24 8,34l-525 394zm114 -988l691 -405c5,5 10,9 17,12l-221 877c-2,0 -5,-1 -7,-1 -17,0 -33,6 -45,15l-443 -424c9,-13 15,-28 15,-44 0,-11 -2,-21 -6,-30zm732 -387c10,0 19,-3 27,-7l504 946c-15,11 -26,27 -30,45l-678 -44c-3,-29 -21,-53 -46,-64l221 -876c1,0 1,0 2,0zm201 -983c3,0 5,1 8,1 11,0 21,-2 31,-6l472 965c-7,5 -12,11 -16,19l-639 -49c0,-1 0,-3 0,-4 0,-24 -14,-44 -35,-53l179 -873zm69 -22l1020 857c-5,9 -8,19 -8,29 0,2 0,5 1,7l-487 105c-10,-17 -28,-28 -49,-28 -5,0 -9,1 -14,2l-472 -965c3,-2 7,-5 10,-8zm22 -26l1162 333c-1,3 -1,7 -1,10 0,20 10,37 26,48l-128 465c-3,-1 -7,-1 -10,-1 -12,0 -24,4 -33,11l-1020 -857c2,-3 4,-6 6,-9zm503 1085c6,-9 9,-20 9,-31 0,-2 0,-5 -1,-7l487 -105c10,17 28,28 49,28 1,0 2,0 3,0l172 813c-5,2 -10,5 -15,9l-705 -706zm-54 25c2,0 4,1 6,1 12,0 22,-4 31,-9l705 706c-8,11 -13,24 -14,39l-819 168c-5,-22 -20,-41 -40,-51l130 -854zm-22 -7l-130 854c-4,-1 -8,-1 -12,-1 -8,0 -16,2 -24,4l-507 -951c2,-3 4,-5 5,-8l639 49c0,1 0,3 0,4 0,21 12,40 29,49zm-839 1717l651 -727c10,8 22,13 36,15l86 780c-27,5 -48,23 -58,48l-702 -66c0,-2 0,-3 0,-5 0,-17 -5,-32 -14,-44zm1233 -182l-385 279c-12,-16 -30,-28 -51,-30l-86 -780c34,-6 60,-34 62,-69l819 -168c3,15 11,28 22,39l-275 637c-10,-5 -21,-8 -33,-8 -42,0 -76,34 -76,76 0,8 2,16 4,24zm732 -1073l-270 216c-9,-4 -19,-6 -29,-6 -3,0 -5,1 -7,1l-172 -814c7,-3 12,-8 17,-13l462 543c-8,10 -13,22 -13,36 0,14 5,26 13,36zm-335 -1165c13,0 24,-4 34,-11l293 373c-8,12 -12,26 -12,42 0,38 28,69 64,75l-18 598c-2,1 -4,2 -6,3l-469 -549c2,-6 3,-12 3,-18 0,-20 -10,-37 -26,-48l128 -465c3,1 7,1 10,1zm56 -70l905 -226c0,0 1,1 1,1l-532 632c-12,-7 -25,-11 -40,-11 -18,0 -35,7 -48,18l-293 -373c5,-8 8,-18 8,-29 0,-4 -1,-9 -2,-13zm762 793l-405 361c-9,-7 -19,-11 -31,-12l18 -594c16,-2 30,-9 41,-19l379 220c-4,8 -6,16 -6,25 0,7 1,13 4,19zm162 -1002c2,1 4,2 6,3l-121 924c-11,1 -21,6 -30,13l-379 -220c6,-11 10,-24 10,-38 0,-19 -7,-37 -19,-50l532 -632zm301 2130c-6,0 -12,1 -17,2l-363 -1100c17,-10 28,-28 28,-49 0,-26 -17,-48 -41,-55l121 -922c31,-1 55,-26 55,-57 0,-32 -26,-57 -57,-57 -32,0 -57,26 -57,57 0,4 1,9 2,13l-905 226c-10,-14 -27,-23 -46,-23 -20,0 -37,10 -48,25l-1161 -333c2,-8 4,-16 4,-25 0,-53 -43,-95 -95,-95 -53,0 -95,43 -95,95 0,42 27,77 65,90l-179 873c-32,0 -57,26 -57,57 0,7 1,14 4,20l-691 405c-14,-16 -34,-26 -57,-26 -42,0 -76,34 -76,76 0,35 23,64 55,73l-93 853c0,0 0,0 0,0 -53,0 -95,43 -95,95 0,53 43,95 95,95 33,0 62,-17 79,-42l582 318c-2,7 -4,15 -4,24 0,42 34,76 76,76 14,0 26,-4 37,-10l505 668c-22,21 -35,50 -35,83 0,63 51,114 114,114 63,0 114,-51 114,-114 0,-3 -1,-5 -1,-8l1344 -232c10,30 38,52 72,52 42,0 76,-34 76,-76 0,-38 -28,-69 -64,-75l227 -799c27,-4 50,-22 60,-47l449 -154c6,36 37,63 75,63 42,0 76,-34 76,-76 0,-42 -34,-76 -76,-76z"/>
  <polygon class="fil1" points="1574,2179 1574,1352 1803,1352 1803,1688 2088,1352 2359,1352 2046,1708 2370,2179 2095,2179 1887,1872 1803,1965 1803,2179 "/>
  <polygon class="fil1" points="2532,2179 2761,2179 2761,1352 2532,1352 "/>
  <polygon class="fil1" points="3017,2179 3017,1352 3231,1352 3570,1789 3570,1352 3797,1352 3797,2179 3597,2179 3244,1726 3244,2179 "/>
  <polygon class="fil1" points="4051,2179 4051,1352 4716,1352 4716,1547 4277,1547 4277,1672 4674,1672 4674,1853 4277,1853 4277,1984 4721,1984 4721,2179 "/>
  <path class="fil1" d="M4875 1766c0,-60 11,-116 33,-169 22,-53 52,-98 90,-137 38,-38 84,-69 138,-91 54,-22 112,-33 173,-33 147,0 263,58 347,173l-168 130c-51,-65 -112,-97 -182,-97 -57,0 -104,21 -142,64 -37,43 -56,96 -56,159 0,63 19,116 56,159 37,43 84,64 142,64 40,0 75,-8 103,-25 28,-17 56,-42 84,-76l172 124c-28,38 -58,70 -89,96 -31,26 -71,47 -118,64 -47,17 -100,25 -159,25 -78,0 -149,-18 -214,-55 -65,-37 -116,-88 -154,-154 -38,-66 -57,-139 -57,-221z"/>
  <polygon class="fil1" points="5784,1554 5784,1352 6509,1352 6509,1554 6261,1554 6261,2179 6032,2179 6032,1554 "/>
  <path class="fil2" d="M6637 1975c-59,0 -109,50 -109,109 0,59 50,109 109,109 59,0 109,-50 109,-109 0,-59 -50,-109 -109,-109z"/>
  <path class="fil2" d="M7328 1746l-161 0 0 -166 161 0c53,0 93,30 93,83 0,52 -39,82 -93,82zm15 -339l-387 0 0 772 199 0 0 -259 188 0c174,0 269,-117 269,-256 0,-140 -95,-257 -269,-257z"/>
  <path class="fil2" d="M8161 1746l-157 0 0 -166 157 0c52,0 96,30 96,82 0,54 -44,83 -96,83zm287 -82c0,-144 -97,-257 -269,-257l-387 0 0 772 199 0 0 -259 102 0 130 259 228 0 -157 -284c72,-25 154,-97 154,-231z"/>
  <path class="fil2" d="M9036 2017c-129,0 -211,-98 -211,-223 0,-126 82,-223 211,-223 127,0 210,97 210,223 0,125 -82,223 -210,223zm400 -201l0 -45c-11,-223 -183,-377 -412,-377 -236,0 -413,164 -413,399 0,235 177,399 413,399 228,0 401,-154 412,-377z"/>
  <polygon class="fil3" points="4111,2934 4111,2730 4259,2730 4259,2751 4134,2751 4134,2821 4246,2821 4246,2842 4134,2842 4134,2913 4260,2913 4260,2934 "/>
  <polygon class="fil3" points="4333,2934 4333,2730 4354,2730 4483,2894 4483,2730 4506,2730 4506,2934 4487,2934 4355,2767 4355,2934 "/>
  <path class="fil3" d="M4618 2834l63 0c16,0 28,-4 38,-11 10,-8 15,-18 15,-31 0,-13 -5,-23 -14,-30 -9,-7 -22,-11 -38,-11l-63 0 0 83zm-23 100l0 -204 88 0c25,0 44,7 58,20 11,11 16,24 16,41 0,16 -5,30 -15,40 -10,10 -24,17 -40,20l63 83 -28 0 -59 -79 -58 0 0 79 -23 0z"/>
  <polygon class="fil3" points="4836,2934 4859,2934 4859,2730 4836,2730 "/>
  <path class="fil3" d="M5042 2938c-29,0 -54,-10 -73,-30 -19,-20 -29,-45 -29,-75 0,-29 10,-54 29,-75 20,-21 44,-31 74,-31 17,0 32,3 44,8 12,6 24,14 35,25l-15 16c-20,-19 -41,-28 -64,-28 -23,0 -41,8 -56,24 -15,16 -23,36 -23,60 0,24 8,44 23,60 15,16 34,24 56,24 13,0 25,-2 35,-7 10,-5 20,-12 31,-22l15 16c-11,11 -24,20 -36,26 -13,6 -28,9 -46,9z"/>
  <polygon class="fil3" points="5192,2934 5192,2730 5215,2730 5215,2821 5333,2821 5333,2730 5356,2730 5356,2934 5333,2934 5333,2842 5215,2842 5215,2934 "/>
  <path class="fil3" d="M5583 2834l63 0c16,0 28,-4 38,-11 10,-8 15,-18 15,-31 0,-13 -5,-23 -14,-30 -9,-7 -22,-11 -38,-11l-63 0 0 83zm-23 100l0 -204 88 0c25,0 44,7 58,20 11,11 16,24 16,41 0,16 -5,30 -15,40 -10,10 -24,17 -40,20l63 83 -28 0 -59 -79 -58 0 0 79 -23 0z"/>
  <path class="fil3" d="M5835 2892c15,16 34,25 58,25 23,0 42,-8 57,-24 15,-16 23,-36 23,-60 0,-24 -8,-43 -23,-60 -15,-16 -34,-25 -58,-25 -23,0 -42,8 -57,24 -15,16 -23,36 -23,60 0,24 8,43 23,60zm132 15c-20,21 -45,31 -75,31 -30,0 -55,-10 -75,-31 -19,-21 -29,-46 -29,-75 0,-29 10,-54 29,-75 20,-21 45,-31 75,-31 30,0 55,10 75,31 19,21 29,45 29,75 0,29 -10,54 -29,75z"/>
  <path class="fil3" d="M6156 2937c-26,0 -46,-8 -62,-23 -15,-15 -23,-37 -23,-65l0 -119 23 0 0 117c0,22 5,39 16,51 11,12 26,18 46,18 19,0 34,-6 45,-17 11,-11 16,-28 16,-50l0 -119 23 0 0 117c0,29 -8,52 -23,67 -15,16 -36,23 -62,23z"/>
  <polygon class="fil3" points="6378,2934 6378,2751 6309,2751 6309,2730 6470,2730 6470,2751 6401,2751 6401,2934 "/>
  <polygon class="fil3" points="6540,2934 6563,2934 6563,2730 6540,2730 "/>
  <polygon class="fil3" points="6653,2934 6653,2730 6674,2730 6803,2894 6803,2730 6826,2730 6826,2934 6807,2934 6675,2767 6675,2934 "/>
  <polygon class="fil3" points="6915,2934 6915,2730 7062,2730 7062,2751 6938,2751 6938,2821 7049,2821 7049,2842 6938,2842 6938,2913 7064,2913 7064,2934 "/>
  <polygon class="fil3" points="7310,2934 7310,2751 7241,2751 7241,2730 7402,2730 7402,2751 7333,2751 7333,2934 "/>
  <polygon class="fil3" points="7471,2934 7471,2730 7494,2730 7494,2821 7612,2821 7612,2730 7635,2730 7635,2934 7612,2934 7612,2842 7494,2842 7494,2934 "/>
  <polygon class="fil3" points="7725,2934 7748,2934 7748,2730 7725,2730 "/>
  <polygon class="fil3" points="7838,2934 7838,2730 7859,2730 7988,2894 7988,2730 8011,2730 8011,2934 7992,2934 7860,2767 7860,2934 "/>
  <path class="fil3" d="M8193 2938c-31,0 -56,-10 -75,-30 -19,-20 -28,-45 -28,-75 0,-29 10,-54 29,-74 19,-21 44,-31 74,-31 16,0 30,2 42,7 12,4 23,11 34,20l-15 17c-18,-16 -39,-23 -62,-23 -22,0 -41,8 -56,25 -15,16 -22,36 -22,60 0,25 7,45 22,61 15,16 34,24 59,24 23,0 42,-7 59,-20l0 -51 -62 0 0 -21 84 0 0 81c-23,21 -51,31 -82,31z"/>
  <path class="fil3" d="M8426 2937c-31,0 -59,-11 -83,-33l14 -17c11,10 22,17 33,22 11,5 23,7 37,7 14,0 25,-3 33,-10 8,-7 13,-15 13,-26 0,-10 -4,-18 -11,-24 -7,-6 -21,-11 -42,-15 -24,-5 -42,-12 -53,-21 -11,-9 -16,-22 -16,-38 0,-16 6,-29 19,-40 13,-11 29,-16 48,-16 27,0 51,8 72,25l-13 18c-18,-15 -38,-22 -59,-22 -13,0 -24,3 -32,9 -8,6 -12,14 -12,24 0,10 4,18 12,24 8,6 22,11 44,16 23,5 40,12 51,21 11,9 16,21 16,37 0,17 -7,31 -20,42 -13,11 -30,16 -50,16z"/>
 </g>
</svg>
