<?xml version="1.0" encoding="utf-8"?>
<!-- Svg Vector Icons : http://www.onlinewebfonts.com/icon -->
<!DOCTYPE svg PUBLIC "-//W3C//DTD SVG 1.1//EN" "http://www.w3.org/Graphics/SVG/1.1/DTD/svg11.dtd">
<svg version="1.1" xmlns="http://www.w3.org/2000/svg" xmlns:xlink="http://www.w3.org/1999/xlink" x="0px" y="0px" viewBox="0 0 1000 1000" enable-background="new 0 0 1000 1000" xml:space="preserve">
<metadata> Svg Vector Icons : http://www.onlinewebfonts.com/icon </metadata>
<g><g><path d="M898.1,10H101.9C51.3,10,10,51.3,10,101.9v796.3c0,50.5,41.3,91.9,91.9,91.9h796.3c50.5,0,91.9-41.3,91.9-91.9V101.9C990,51.3,948.7,10,898.1,10z M803.8,696l-89.6,1.3c0,0-19.3,3.8-44.6-13.6c-33.5-23-65.1-82.9-89.8-75c-24.9,7.8-24.1,61.6-24.1,61.6s0.2,11.5-5.6,17.6c-6.1,6.7-18.4,8-18.4,8h-40c0,0-88.4,5.4-166.3-75.8c-85-88.4-160-263.9-160-263.9s-4.4-11.5,0.4-17c5.4-6.3,19.7-6.7,19.7-6.7l95.9-0.6c0,0,9,1.5,15.5,6.3c5.4,3.8,8.2,11.3,8.2,11.3s15.5,39.2,36,74.6c40,69.1,58.8,84.2,72.4,76.9c19.7-10.7,13.8-97.8,13.8-97.8s0.4-31.6-10-45.6c-8-10.9-23.2-14.2-29.7-14.9c-5.4-0.8,3.4-13.2,14.9-18.9c17.2-8.4,47.7-9,83.6-8.6c27.9,0.2,36.2,2.1,47.1,4.6c33.1,8,21.8,38.9,21.8,112.7c0,23.7-4.2,57,12.8,67.9c7.3,4.8,25.3,0.8,70.2-75.6c21.2-36.2,37.3-78.7,37.3-78.7s3.4-7.7,8.8-10.9c5.6-3.3,13-2.3,13-2.3l100.9-0.6c0,0,30.2-3.6,35.2,10.1c5.2,14.4-11.3,47.9-52.4,102.8c-67.6,90.2-75.2,81.7-18.9,133.8c53.6,49.8,64.7,74.1,66.6,77.1C850.5,693.1,803.8,696,803.8,696L803.8,696z"/></g></g>
</svg>